<mxfile host="65bd71144e">
    <diagram id="1cee9afd-dcdd-cf27-cb82-50d77dad4855" name="Page-1">
        <mxGraphModel dx="1362" dy="679" grid="1" gridSize="10" guides="1" tooltips="1" connect="1" arrows="1" fold="1" page="1" pageScale="1" pageWidth="850" pageHeight="1100" math="0" shadow="0">
            <root>
                <mxCell id="0"/>
                <mxCell id="1" parent="0"/>
                <mxCell id="c1cb8d76720eaeb-22" value="Sport Concussion Assessment System - Use Cases" style="shape=umlFrame;whiteSpace=wrap;html=1;strokeWidth=1;fillColor=#fff2cc;width=200;height=30;strokeColor=#d6b656;" parent="1" vertex="1">
                    <mxGeometry x="200" y="40" width="440" height="480" as="geometry"/>
                </mxCell>
                <mxCell id="c1cb8d76720eaeb-1" value="Input symptons&lt;br&gt;for a game" style="ellipse;whiteSpace=wrap;html=1;fillColor=#fff2cc;strokeColor=#d6b656;" parent="1" vertex="1">
                    <mxGeometry x="237.5" y="182.5" width="122.5" height="55" as="geometry"/>
                </mxCell>
                <mxCell id="c1cb8d76720eaeb-10" style="html=1;exitX=1;exitY=0.3333333333333333;exitPerimeter=0;jettySize=auto;orthogonalLoop=1;fillColor=#fff2cc;strokeColor=#d6b656;curved=1;fontColor=#000099;entryX=0;entryY=0.5;entryDx=0;entryDy=0;" parent="1" source="c1cb8d76720eaeb-15" target="c1cb8d76720eaeb-1" edge="1">
                    <mxGeometry relative="1" as="geometry">
                        <mxPoint x="238" y="120" as="targetPoint"/>
                    </mxGeometry>
                </mxCell>
                <mxCell id="c1cb8d76720eaeb-14" style="edgeStyle=none;curved=1;html=1;exitX=1;exitY=0.3333333333333333;exitPerimeter=0;jettySize=auto;orthogonalLoop=1;strokeColor=#d6b656;entryX=0;entryY=0.5;fontColor=#000099;fillColor=#fff2cc;entryDx=0;entryDy=0;" parent="1" source="c1cb8d76720eaeb-15" target="15" edge="1">
                    <mxGeometry relative="1" as="geometry">
                        <mxPoint x="245" y="475" as="targetPoint"/>
                    </mxGeometry>
                </mxCell>
                <mxCell id="c1cb8d76720eaeb-15" value="Athletes" style="shape=umlActor;verticalLabelPosition=bottom;labelBackgroundColor=#ffffff;verticalAlign=top;html=1;strokeWidth=4;" parent="1" vertex="1">
                    <mxGeometry x="120" y="195" width="30" height="60" as="geometry"/>
                </mxCell>
                <mxCell id="c1cb8d76720eaeb-16" style="rounded=0;html=1;exitX=0;exitY=0.3333333333333333;exitPerimeter=0;jettySize=auto;orthogonalLoop=1;fontColor=#000099;strokeColor=#d6b656;entryX=1;entryY=0.5;entryDx=0;entryDy=0;fillColor=#fff2cc;" parent="1" source="c1cb8d76720eaeb-20" target="11" edge="1">
                    <mxGeometry relative="1" as="geometry">
                        <mxPoint x="595" y="295" as="targetPoint"/>
                    </mxGeometry>
                </mxCell>
                <mxCell id="c1cb8d76720eaeb-20" value="Sport Medical&lt;br&gt;Practitioners" style="shape=umlActor;verticalLabelPosition=bottom;labelBackgroundColor=#ffffff;verticalAlign=top;html=1;strokeWidth=4;fillColor=#FFCCCC;" parent="1" vertex="1">
                    <mxGeometry x="690" y="195" width="30" height="60" as="geometry"/>
                </mxCell>
                <mxCell id="c1cb8d76720eaeb-28" value="&lt;font color=&quot;#000000&quot;&gt;&amp;lt;&amp;lt; include &amp;gt;&amp;gt;&lt;/font&gt;" style="endArrow=open;endSize=12;dashed=1;html=1;exitX=1;exitY=0.5;entryX=0;entryY=0.5;fontColor=#000099;strokeColor=#d6b656;entryDx=0;entryDy=0;fillColor=#fff2cc;" parent="1" source="c1cb8d76720eaeb-1" target="13" edge="1">
                    <mxGeometry x="-0.0081" width="160" relative="1" as="geometry">
                        <mxPoint x="375" y="215" as="sourcePoint"/>
                        <mxPoint x="500.0000000000002" y="208.75" as="targetPoint"/>
                        <mxPoint as="offset"/>
                    </mxGeometry>
                </mxCell>
                <mxCell id="9" style="html=1;jettySize=auto;orthogonalLoop=1;fillColor=#fff2cc;strokeColor=#d6b656;curved=1;fontColor=#000099;entryX=0;entryY=0.5;entryDx=0;entryDy=0;exitX=1;exitY=0.3333333333333333;exitDx=0;exitDy=0;exitPerimeter=0;" edge="1" parent="1" source="c1cb8d76720eaeb-15" target="14">
                    <mxGeometry relative="1" as="geometry">
                        <mxPoint x="180" y="215" as="sourcePoint"/>
                        <mxPoint x="231.24999999999818" y="280.0000000000001" as="targetPoint"/>
                    </mxGeometry>
                </mxCell>
                <mxCell id="11" value="Login/Create&lt;br&gt;user&amp;nbsp;" style="ellipse;whiteSpace=wrap;html=1;fillColor=#fff2cc;strokeColor=#d6b656;" vertex="1" parent="1">
                    <mxGeometry x="352.5" y="100" width="135" height="50" as="geometry"/>
                </mxCell>
                <mxCell id="12" style="html=1;jettySize=auto;orthogonalLoop=1;fillColor=#fff2cc;strokeColor=#d6b656;curved=1;fontColor=#000099;entryX=0;entryY=0.5;entryDx=0;entryDy=0;exitX=1;exitY=0.3333333333333333;exitDx=0;exitDy=0;exitPerimeter=0;" edge="1" parent="1" source="c1cb8d76720eaeb-15" target="11">
                    <mxGeometry relative="1" as="geometry">
                        <mxPoint x="255" y="245" as="targetPoint"/>
                        <mxPoint x="160" y="220" as="sourcePoint"/>
                    </mxGeometry>
                </mxCell>
                <mxCell id="13" value="Save 5 most&lt;br&gt;recent games" style="ellipse;whiteSpace=wrap;html=1;fillColor=#f8cecc;strokeColor=#b85450;" vertex="1" parent="1">
                    <mxGeometry x="480" y="182.5" width="122.5" height="55" as="geometry"/>
                </mxCell>
                <mxCell id="14" value="View overall&lt;br&gt;risk indicator" style="ellipse;whiteSpace=wrap;html=1;fillColor=#fff2cc;strokeColor=#d6b656;" vertex="1" parent="1">
                    <mxGeometry x="237.5" y="250" width="122.5" height="55" as="geometry"/>
                </mxCell>
                <mxCell id="15" value="View symptons&lt;br&gt;summary for 5&amp;nbsp;&lt;br&gt;most recent games" style="ellipse;whiteSpace=wrap;html=1;fillColor=#fff2cc;strokeColor=#d6b656;" vertex="1" parent="1">
                    <mxGeometry x="237.5" y="320" width="122.5" height="70" as="geometry"/>
                </mxCell>
                <mxCell id="16" value="View advice&lt;br&gt;by sport medical practitioner" style="ellipse;whiteSpace=wrap;html=1;fillColor=#fff2cc;strokeColor=#d6b656;" vertex="1" parent="1">
                    <mxGeometry x="237.5" y="410" width="122.5" height="70" as="geometry"/>
                </mxCell>
                <mxCell id="17" style="edgeStyle=none;curved=1;html=1;jettySize=auto;orthogonalLoop=1;strokeColor=#d6b656;entryX=0;entryY=0.5;fontColor=#000099;fillColor=#fff2cc;entryDx=0;entryDy=0;exitX=1;exitY=0.3333333333333333;exitDx=0;exitDy=0;exitPerimeter=0;" edge="1" parent="1" source="c1cb8d76720eaeb-15" target="16">
                    <mxGeometry relative="1" as="geometry">
                        <mxPoint x="237.49999999999704" y="420.0000000000001" as="targetPoint"/>
                        <mxPoint x="150" y="220" as="sourcePoint"/>
                    </mxGeometry>
                </mxCell>
                <mxCell id="18" value="List athletes" style="ellipse;whiteSpace=wrap;html=1;fillColor=#fff2cc;strokeColor=#d6b656;" vertex="1" parent="1">
                    <mxGeometry x="480" y="250" width="122.5" height="55" as="geometry"/>
                </mxCell>
                <mxCell id="19" style="rounded=0;html=1;exitX=0;exitY=0.3333333333333333;exitPerimeter=0;jettySize=auto;orthogonalLoop=1;fontColor=#000099;strokeColor=#d6b656;entryX=1;entryY=0.5;entryDx=0;entryDy=0;fillColor=#fff2cc;exitDx=0;exitDy=0;" edge="1" parent="1" source="c1cb8d76720eaeb-20" target="18">
                    <mxGeometry relative="1" as="geometry">
                        <mxPoint x="497.5" y="135" as="targetPoint"/>
                        <mxPoint x="700" y="225.0000000000001" as="sourcePoint"/>
                    </mxGeometry>
                </mxCell>
                <mxCell id="23" value="Input advice&lt;br&gt;for an athlete" style="ellipse;whiteSpace=wrap;html=1;fillColor=#fff2cc;strokeColor=#d6b656;" vertex="1" parent="1">
                    <mxGeometry x="480" y="417.5" width="122.5" height="55" as="geometry"/>
                </mxCell>
                <mxCell id="24" style="rounded=0;html=1;exitX=0;exitY=0.3333333333333333;exitPerimeter=0;jettySize=auto;orthogonalLoop=1;fontColor=#000099;strokeColor=#d6b656;entryX=1;entryY=0.5;entryDx=0;entryDy=0;fillColor=#fff2cc;exitDx=0;exitDy=0;" edge="1" parent="1" source="c1cb8d76720eaeb-20" target="23">
                    <mxGeometry relative="1" as="geometry">
                        <mxPoint x="612.5000000000002" y="365" as="targetPoint"/>
                        <mxPoint x="699.9999999999998" y="225" as="sourcePoint"/>
                    </mxGeometry>
                </mxCell>
                <mxCell id="27" value="View athlete" style="ellipse;whiteSpace=wrap;html=1;fillColor=#fff2cc;strokeColor=#d6b656;" vertex="1" parent="1">
                    <mxGeometry x="480" y="327.5" width="122.5" height="55" as="geometry"/>
                </mxCell>
                <mxCell id="28" style="rounded=0;html=1;exitX=0;exitY=0.3333333333333333;exitPerimeter=0;jettySize=auto;orthogonalLoop=1;fontColor=#000099;strokeColor=#d6b656;entryX=1;entryY=0.5;entryDx=0;entryDy=0;fillColor=#fff2cc;exitDx=0;exitDy=0;" edge="1" parent="1" source="c1cb8d76720eaeb-20" target="27">
                    <mxGeometry relative="1" as="geometry">
                        <mxPoint x="612.5" y="287.5" as="targetPoint"/>
                        <mxPoint x="700" y="225" as="sourcePoint"/>
                    </mxGeometry>
                </mxCell>
                <mxCell id="29" style="rounded=0;html=1;exitX=0;exitY=0.5;jettySize=auto;orthogonalLoop=1;fontColor=#000099;strokeColor=#d6b656;fillColor=#fff2cc;exitDx=0;exitDy=0;entryX=1;entryY=0.5;entryDx=0;entryDy=0;" edge="1" parent="1" source="27" target="14">
                    <mxGeometry relative="1" as="geometry">
                        <mxPoint x="376.25" y="317.5" as="targetPoint"/>
                        <mxPoint x="463.75" y="255" as="sourcePoint"/>
                    </mxGeometry>
                </mxCell>
                <mxCell id="30" style="rounded=0;html=1;exitX=0;exitY=0.5;jettySize=auto;orthogonalLoop=1;fontColor=#000099;strokeColor=#d6b656;fillColor=#fff2cc;exitDx=0;exitDy=0;entryX=1;entryY=0.5;entryDx=0;entryDy=0;" edge="1" parent="1" source="27" target="15">
                    <mxGeometry relative="1" as="geometry">
                        <mxPoint x="370" y="287.5" as="targetPoint"/>
                        <mxPoint x="490" y="365" as="sourcePoint"/>
                    </mxGeometry>
                </mxCell>
            </root>
        </mxGraphModel>
    </diagram>
</mxfile>
